<svg width="1200" height="675" viewBox="0 0 1200 675" fill="none" xmlns="http://www.w3.org/2000/svg" role="img" aria-labelledby="title description">
  <title id="title">Vista visual de Tailwind CSS, recurso para diseño y desarrollo web.</title>
  <desc id="description">Framework CSS utility-first para sistemas visuales.</desc>
  <defs>
    <linearGradient id="background" x1="80" y1="30" x2="1120" y2="645" gradientUnits="userSpaceOnUse">
      <stop stop-color="#161b3b"/>
      <stop offset="0.52" stop-color="#090D19"/>
      <stop offset="1" stop-color="#05070D"/>
    </linearGradient>
    <linearGradient id="accent" x1="130" y1="90" x2="1050" y2="600" gradientUnits="userSpaceOnUse">
      <stop stop-color="#5b7cff"/>
      <stop offset="1" stop-color="#8d5cff"/>
    </linearGradient>
    <radialGradient id="glow" cx="0" cy="0" r="1" gradientTransform="translate(925 120) rotate(133) scale(420 430)" gradientUnits="userSpaceOnUse">
      <stop stop-color="#5b7cff" stop-opacity=".55"/>
      <stop offset="1" stop-color="#5b7cff" stop-opacity="0"/>
    </radialGradient>
    <filter id="shadow" x="-20%" y="-20%" width="140%" height="160%">
      <feDropShadow dx="0" dy="28" stdDeviation="36" flood-color="#000" flood-opacity=".42"/>
    </filter>
  </defs>
  <rect width="1200" height="675" rx="40" fill="url(#background)"/>
  <rect width="1200" height="675" rx="40" fill="url(#glow)"/>
  <path d="M0 525C200 425 310 660 525 545C735 432 880 620 1200 435V675H0V525Z" fill="url(#accent)" opacity=".13"/>
  <g opacity=".14">
    <path d="M0 120H1200M0 240H1200M0 360H1200M0 480H1200M0 600H1200" stroke="#fff"/>
    <path d="M120 0V675M240 0V675M360 0V675M480 0V675M600 0V675M720 0V675M840 0V675M960 0V675M1080 0V675" stroke="#fff"/>
  </g>

  <g filter="url(#shadow)">
    <rect x="70" y="66" width="1060" height="543" rx="30" fill="#0C101D" fill-opacity=".93" stroke="#fff" stroke-opacity=".16" stroke-width="2"/>
    <path d="M70 126H1130" stroke="#fff" stroke-opacity=".12" stroke-width="2"/>
    <circle cx="108" cy="96" r="7" fill="#FF6577"/>
    <circle cx="134" cy="96" r="7" fill="#F7C95C"/>
    <circle cx="160" cy="96" r="7" fill="#5BD18A"/>
    <rect x="210" y="82" width="375" height="28" rx="14" fill="#fff" fill-opacity=".06"/>
    <text x="232" y="101" fill="#AAB4CC" font-family="ui-monospace, SFMono-Regular, monospace" font-size="13">tailwindcss.com</text>
  </g>

  <rect x="110" y="166" width="187" height="34" rx="17" fill="#5b7cff" fill-opacity=".15" stroke="#5b7cff" stroke-opacity=".45"/>
  <text x="203.5" y="188" text-anchor="middle" fill="#5b7cff" font-family="Inter, Arial, sans-serif" font-size="14" font-weight="700" letter-spacing="1.5">STACK MODERNO</text>

  <text x="110" y="276" fill="#F8FAFF" font-family="Inter, Arial, sans-serif" font-size="70" font-weight="760" letter-spacing="-3">
    <tspan x="110" dy="0">Tailwind CSS</tspan>
  </text>
  <text x="112" y="354" fill="#AAB4CC" font-family="Inter, Arial, sans-serif" font-size="24">
    <tspan x="112" dy="0">Framework CSS utility-first para sistemas</tspan><tspan x="112" dy="34">visuales.</tspan>
  </text>

  <g transform="translate(790 174)">
    <rect width="286" height="330" rx="28" fill="#fff" fill-opacity=".055" stroke="#fff" stroke-opacity=".12"/>
    <rect x="28" y="30" width="82" height="82" rx="24" fill="url(#accent)"/>
    <text x="69" y="85" text-anchor="middle" fill="white" font-family="Inter, Arial, sans-serif" font-size="38" font-weight="800">T</text>
    <rect x="28" y="138" width="172" height="14" rx="7" fill="#fff" fill-opacity=".82"/>
    <rect x="28" y="166" width="112" height="10" rx="5" fill="#fff" fill-opacity=".22"/>
    <rect x="32" y="153" width="25" height="135" rx="12.5" fill="#5b7cff" fill-opacity="0.55"/><rect x="77" y="169" width="25" height="119" rx="12.5" fill="#8d5cff" fill-opacity="0.63"/><rect x="122" y="185" width="25" height="103" rx="12.5" fill="#5b7cff" fill-opacity="0.7100000000000001"/><rect x="167" y="201" width="25" height="87" rx="12.5" fill="#8d5cff" fill-opacity="0.79"/><rect x="212" y="217" width="25" height="71" rx="12.5" fill="#5b7cff" fill-opacity="0.8700000000000001"/>
  </g>

  <g transform="translate(110 500)">
    <rect x="0" width="132" height="36" rx="18" fill="#fff" fill-opacity=".06" stroke="#fff" stroke-opacity=".12"/>
      <text x="66" y="23" text-anchor="middle" fill="#D7DDF0" font-family="Inter, Arial, sans-serif" font-size="14">CSS</text><rect x="150" width="132" height="36" rx="18" fill="#fff" fill-opacity=".06" stroke="#fff" stroke-opacity=".12"/>
      <text x="216" y="23" text-anchor="middle" fill="#D7DDF0" font-family="Inter, Arial, sans-serif" font-size="14">Tokens</text>
  </g>
</svg>