<svg width="1600" height="900" viewBox="0 0 1600 900" fill="none" xmlns="http://www.w3.org/2000/svg" role="img" aria-labelledby="title description">
  <title id="title">Awesome Modern UI</title>
  <desc id="description">Directorio visual de recursos para diseñar páginas web y aplicaciones modernas.</desc>
  <defs>
    <linearGradient id="bg" x1="120" y1="40" x2="1480" y2="860" gradientUnits="userSpaceOnUse">
      <stop stop-color="#202A67"/>
      <stop offset=".48" stop-color="#0A0E1A"/>
      <stop offset="1" stop-color="#180C2D"/>
    </linearGradient>
    <linearGradient id="accent" x1="250" y1="140" x2="1330" y2="760" gradientUnits="userSpaceOnUse">
      <stop stop-color="#6479FF"/>
      <stop offset=".5" stop-color="#9B5CFF"/>
      <stop offset="1" stop-color="#22D3EE"/>
    </linearGradient>
    <filter id="shadow" x="-30%" y="-30%" width="160%" height="180%">
      <feDropShadow dx="0" dy="30" stdDeviation="40" flood-color="#000" flood-opacity=".48"/>
    </filter>
  </defs>
  <rect width="1600" height="900" rx="48" fill="url(#bg)"/>
  <circle cx="1370" cy="80" r="410" fill="#6D5DFC" fill-opacity=".2"/>
  <circle cx="230" cy="870" r="390" fill="#22D3EE" fill-opacity=".12"/>
  <g opacity=".1">
    <path d="M0 150H1600M0 300H1600M0 450H1600M0 600H1600M0 750H1600" stroke="#fff"/>
    <path d="M160 0V900M320 0V900M480 0V900M640 0V900M800 0V900M960 0V900M1120 0V900M1280 0V900M1440 0V900" stroke="#fff"/>
  </g>
  <text x="120" y="150" fill="#9EA9FF" font-family="Inter, Arial, sans-serif" font-size="24" font-weight="750" letter-spacing="4">AWESOME MODERN UI</text>
  <text x="120" y="260" fill="#F8FAFF" font-family="Inter, Arial, sans-serif" font-size="82" font-weight="800" letter-spacing="-4">
    <tspan x="120">Recursos para diseñar</tspan>
    <tspan x="120" dy="92">webs y apps modernas.</tspan>
  </text>
  <text x="124" y="485" fill="#B2BAD0" font-family="Inter, Arial, sans-serif" font-size="28">
    <tspan x="124">Componentes, animación, 3D, rendimiento e inspiración.</tspan>
    <tspan x="124" dy="42">Una selección visual, útil y mantenida por la comunidad.</tspan>
  </text>
  <g transform="translate(120 620)">
    <rect width="220" height="58" rx="29" fill="url(#accent)"/>
    <text x="110" y="37" text-anchor="middle" fill="white" font-family="Inter, Arial, sans-serif" font-size="19" font-weight="750">41 RECURSOS</text>
    <rect x="240" width="240" height="58" rx="29" fill="#fff" fill-opacity=".06" stroke="#fff" stroke-opacity=".16"/>
    <text x="360" y="37" text-anchor="middle" fill="#E9ECF8" font-family="Inter, Arial, sans-serif" font-size="19" font-weight="650">8 CATEGORÍAS</text>
  </g>
  <g transform="translate(1010 160)" filter="url(#shadow)">
    <g transform="rotate(8 210 240)">
      <rect width="420" height="510" rx="32" fill="#0D1222" stroke="#fff" stroke-opacity=".16" stroke-width="2"/>
      <rect x="28" y="28" width="364" height="220" rx="22" fill="url(#accent)" fill-opacity=".2"/>
      <rect x="58" y="68" width="92" height="92" rx="28" fill="url(#accent)"/>
      <rect x="58" y="180" width="250" height="18" rx="9" fill="#fff" fill-opacity=".85"/>
      <rect x="58" y="215" width="180" height="12" rx="6" fill="#fff" fill-opacity=".25"/>
      <rect x="28" y="278" width="172" height="190" rx="22" fill="#fff" fill-opacity=".055"/>
      <rect x="220" y="278" width="172" height="190" rx="22" fill="#fff" fill-opacity=".055"/>
      <path d="M58 420L92 365L126 392L170 325" stroke="#22D3EE" stroke-width="12" stroke-linecap="round" stroke-linejoin="round"/>
      <circle cx="305" cy="370" r="54" stroke="#9B5CFF" stroke-width="22"/>
    </g>
  </g>
</svg>